{
	"patcher" : 	{
		"fileversion" : 1,
		"appversion" : 		{
			"major" : 6,
			"minor" : 1,
			"revision" : 3,
			"architecture" : "x86"
		}
,
		"rect" : [ 4.0, 44.0, 393.0, 780.0 ],
		"bglocked" : 0,
		"openinpresentation" : 0,
		"default_fontsize" : 12.0,
		"default_fontface" : 0,
		"default_fontname" : "Arial",
		"gridonopen" : 0,
		"gridsize" : [ 15.0, 15.0 ],
		"gridsnaponopen" : 0,
		"statusbarvisible" : 2,
		"toolbarvisible" : 1,
		"boxanimatetime" : 200,
		"imprint" : 0,
		"enablehscroll" : 1,
		"enablevscroll" : 1,
		"devicewidth" : 0.0,
		"description" : "",
		"digest" : "",
		"tags" : "",
		"boxes" : [ 			{
				"box" : 				{
					"color" : [ 0.20497, 0.658007, 0.0, 1.0 ],
					"fontname" : "Arial Bold",
					"fontsize" : 16.0,
					"id" : "obj-5",
					"maxclass" : "newobj",
					"numinlets" : 1,
					"numoutlets" : 0,
					"patching_rect" : [ 262.0, 477.0, 124.181755, 24.0 ],
					"text" : "s ---toCsound~"
				}

			}
, 			{
				"box" : 				{
					"color" : [ 0.748187, 0.707529, 0.661047, 1.0 ],
					"fontname" : "Arial",
					"fontsize" : 16.0,
					"id" : "obj-6",
					"maxclass" : "newobj",
					"numinlets" : 1,
					"numoutlets" : 2,
					"outlettype" : [ "bang", "" ],
					"patching_rect" : [ 262.0, 398.999969, 124.181755, 24.0 ],
					"text" : "t b l"
				}

			}
, 			{
				"box" : 				{
					"bgcolor" : [ 0.74902, 0.705882, 0.662745, 1.0 ],
					"fontname" : "Arial",
					"fontsize" : 16.0,
					"id" : "obj-7",
					"maxclass" : "message",
					"numinlets" : 2,
					"numoutlets" : 1,
					"outlettype" : [ "" ],
					"patching_rect" : [ 262.0, 422.999969, 124.181755, 22.0 ],
					"text" : "set c oscFreq"
				}

			}
, 			{
				"box" : 				{
					"color" : [ 0.748187, 0.707529, 0.661047, 1.0 ],
					"fontname" : "Arial",
					"fontsize" : 16.0,
					"id" : "obj-8",
					"maxclass" : "newobj",
					"numinlets" : 1,
					"numoutlets" : 1,
					"outlettype" : [ "" ],
					"patching_rect" : [ 262.0, 374.999969, 124.181755, 24.0 ],
					"text" : "prepend set"
				}

			}
, 			{
				"box" : 				{
					"color" : [ 0.748187, 0.707529, 0.661047, 1.0 ],
					"fontname" : "Arial",
					"fontsize" : 16.0,
					"id" : "obj-12",
					"maxclass" : "newobj",
					"numinlets" : 2,
					"numoutlets" : 2,
					"outlettype" : [ "", "" ],
					"patching_rect" : [ 262.0, 350.999969, 123.181755, 24.0 ],
					"text" : "zl filter text"
				}

			}
, 			{
				"box" : 				{
					"color" : [ 0.748187, 0.707529, 0.661047, 1.0 ],
					"fontname" : "Arial",
					"fontsize" : 16.0,
					"id" : "obj-17",
					"maxclass" : "newobj",
					"numinlets" : 1,
					"numoutlets" : 1,
					"outlettype" : [ "" ],
					"patching_rect" : [ 262.0, 452.999969, 124.181755, 24.0 ],
					"text" : "prepend"
				}

			}
, 			{
				"box" : 				{
					"bgcolor" : [ 0.74902, 0.705882, 0.662745, 1.0 ],
					"fontname" : "Arial",
					"fontsize" : 16.0,
					"id" : "obj-2",
					"maxclass" : "message",
					"numinlets" : 2,
					"numoutlets" : 1,
					"outlettype" : [ "" ],
					"patching_rect" : [ 314.090851, 170.0, 71.090904, 22.0 ],
					"text" : "size $1"
				}

			}
, 			{
				"box" : 				{
					"bordercolor" : [ 0.0, 0.0, 0.0, 1.0 ],
					"fontname" : "Arial",
					"fontsize" : 12.0,
					"id" : "obj-15",
					"maxclass" : "number",
					"numinlets" : 1,
					"numoutlets" : 2,
					"outlettype" : [ "int", "bang" ],
					"parameter_enable" : 0,
					"patching_rect" : [ 314.090851, 149.0, 71.090904, 20.0 ]
				}

			}
, 			{
				"box" : 				{
					"bordercolor" : [ 0.0, 0.0, 0.0, 1.0 ],
					"floatoutput" : 1,
					"id" : "obj-16",
					"maxclass" : "slider",
					"numinlets" : 1,
					"numoutlets" : 1,
					"outlettype" : [ "" ],
					"parameter_enable" : 0,
					"patching_rect" : [ 314.090851, 193.000015, 71.090904, 122.999992 ],
					"size" : 1.0
				}

			}
, 			{
				"box" : 				{
					"bordercolor" : [ 0.0, 0.0, 0.0, 1.0 ],
					"fontname" : "Arial",
					"fontsize" : 16.0,
					"id" : "obj-3",
					"maxclass" : "flonum",
					"numinlets" : 1,
					"numoutlets" : 2,
					"outlettype" : [ "float", "bang" ],
					"parameter_enable" : 0,
					"patching_rect" : [ 314.090851, 316.0, 71.090904, 24.0 ]
				}

			}
, 			{
				"box" : 				{
					"bordercolor" : [ 0.0, 0.0, 0.0, 1.0 ],
					"fontname" : "Arial",
					"fontsize" : 12.0,
					"frgb" : 0.0,
					"id" : "obj-19",
					"keymode" : 1,
					"maxclass" : "textedit",
					"numinlets" : 1,
					"numoutlets" : 4,
					"outlettype" : [ "", "int", "", "" ],
					"parameter_enable" : 0,
					"patching_rect" : [ 262.0, 128.0, 123.181786, 20.0 ],
					"tabmode" : 0,
					"text" : "c oscFreq"
				}

			}
, 			{
				"box" : 				{
					"activebgcolor" : [ 0.0, 0.0, 0.0, 0.0 ],
					"activebgoncolor" : [ 0.74902, 0.705882, 0.662745, 1.0 ],
					"bgcolor" : [ 0.498039, 0.52549, 0.576471, 1.0 ],
					"bgoncolor" : [ 0.815686, 0.847059, 0.886275, 0.0 ],
					"bordercolor" : [ 0.674992, 0.802453, 1.0, 1.0 ],
					"focusbordercolor" : [ 0.0, 0.019608, 0.078431, 0.0 ],
					"id" : "obj-14",
					"maxclass" : "live.button",
					"numinlets" : 1,
					"numoutlets" : 1,
					"outlettype" : [ "" ],
					"parameter_enable" : 1,
					"patching_rect" : [ 173.250015, 34.0, 56.100002, 52.0 ],
					"presentation" : 1,
					"presentation_rect" : [ 152.150452, 156.186279, 28.194733, 27.194733 ],
					"saved_attribute_attributes" : 					{
						"valueof" : 						{
							"parameter_longname" : "On[2]",
							"parameter_shortname" : "On",
							"parameter_type" : 2,
							"parameter_mmax" : 1.0,
							"parameter_enum" : [ "off", "on" ]
						}

					}
,
					"varname" : "On[2]"
				}

			}
, 			{
				"box" : 				{
					"bgcolor" : [ 0.74902, 0.705882, 0.662745, 1.0 ],
					"fontname" : "Arial",
					"fontsize" : 16.0,
					"id" : "obj-10",
					"maxclass" : "message",
					"numinlets" : 2,
					"numoutlets" : 1,
					"outlettype" : [ "" ],
					"patching_rect" : [ 173.250015, 94.999992, 46.0, 22.0 ],
					"text" : "open"
				}

			}
, 			{
				"box" : 				{
					"bgcolor" : [ 0.74902, 0.705882, 0.662745, 1.0 ],
					"fontname" : "Arial",
					"fontsize" : 16.0,
					"id" : "obj-9",
					"maxclass" : "message",
					"numinlets" : 2,
					"numoutlets" : 1,
					"outlettype" : [ "" ],
					"patching_rect" : [ 99.250015, 94.999992, 41.0, 22.0 ],
					"text" : "stop"
				}

			}
, 			{
				"box" : 				{
					"bgcolor" : [ 0.74902, 0.705882, 0.662745, 1.0 ],
					"fontname" : "Arial",
					"fontsize" : 16.0,
					"id" : "obj-4",
					"maxclass" : "message",
					"numinlets" : 2,
					"numoutlets" : 1,
					"outlettype" : [ "" ],
					"patching_rect" : [ 25.250015, 94.999992, 42.0, 22.0 ],
					"text" : "start"
				}

			}
, 			{
				"box" : 				{
					"id" : "obj-1",
					"maxclass" : "button",
					"numinlets" : 1,
					"numoutlets" : 1,
					"outlettype" : [ "bang" ],
					"patching_rect" : [ 243.0, 152.0, 20.0, 20.0 ]
				}

			}
, 			{
				"box" : 				{
					"id" : "obj-11",
					"maxclass" : "button",
					"numinlets" : 1,
					"numoutlets" : 1,
					"outlettype" : [ "bang" ],
					"patching_rect" : [ 196.0, 152.0, 20.0, 20.0 ]
				}

			}
, 			{
				"box" : 				{
					"color" : [ 0.203922, 0.658824, 0.0, 1.0 ],
					"fontname" : "Arial Bold",
					"fontsize" : 16.0,
					"id" : "obj-37",
					"maxclass" : "newobj",
					"numinlets" : 0,
					"numoutlets" : 1,
					"outlettype" : [ "" ],
					"patching_rect" : [ 8.0, 6.0, 123.0, 24.0 ],
					"text" : "r ---toCsound~"
				}

			}
, 			{
				"box" : 				{
					"bgcolor" : [ 0.0, 0.0, 0.0, 1.0 ],
					"id" : "obj-363",
					"maxclass" : "ezdac~",
					"numinlets" : 2,
					"numoutlets" : 0,
					"offgradcolor1" : [ 0.392157, 0.392157, 0.392157, 1.0 ],
					"offgradcolor2" : [ 0.0, 0.0, 0.0, 1.0 ],
					"ongradcolor1" : [ 0.74902, 0.705882, 0.662745, 1.0 ],
					"ongradcolor2" : [ 1.0, 1.0, 1.0, 1.0 ],
					"patching_rect" : [ 8.0, 398.0, 202.0, 202.0 ]
				}

			}
, 			{
				"box" : 				{
					"bgcolor" : [ 0.0, 0.0, 0.0, 1.0 ],
					"bordercolor" : [ 0.0, 0.0, 0.0, 1.0 ],
					"calccount" : 16,
					"fgcolor" : [ 1.0, 1.0, 1.0, 1.0 ],
					"gridcolor" : [ 0.74902, 0.705882, 0.662745, 1.0 ],
					"id" : "obj-366",
					"maxclass" : "scope~",
					"numinlets" : 2,
					"numoutlets" : 0,
					"patching_rect" : [ 8.0, 608.0, 377.181763, 164.0 ],
					"rounded" : 0
				}

			}
, 			{
				"box" : 				{
					"bgcolor" : [ 1.0, 1.0, 1.0, 1.0 ],
					"bordercolor" : [ 0.0, 0.0, 0.0, 1.0 ],
					"id" : "obj-367",
					"knobcolor" : [ 0.27451, 0.27451, 0.27451, 1.0 ],
					"maxclass" : "gain~",
					"numinlets" : 2,
					"numoutlets" : 2,
					"orientation" : 2,
					"outlettype" : [ "signal", "int" ],
					"parameter_enable" : 0,
					"patching_rect" : [ 114.0, 175.651398, 96.0, 212.348602 ],
					"stripecolor" : [ 0.74902, 0.705882, 0.662745, 1.0 ]
				}

			}
, 			{
				"box" : 				{
					"bgcolor" : [ 1.0, 1.0, 1.0, 1.0 ],
					"bordercolor" : [ 0.0, 0.0, 0.0, 1.0 ],
					"id" : "obj-368",
					"knobcolor" : [ 0.27451, 0.27451, 0.27451, 1.0 ],
					"maxclass" : "gain~",
					"numinlets" : 2,
					"numoutlets" : 2,
					"orientation" : 2,
					"outlettype" : [ "signal", "int" ],
					"parameter_enable" : 0,
					"patching_rect" : [ 8.0, 175.651398, 96.0, 212.348602 ],
					"stripecolor" : [ 0.74902, 0.705882, 0.662745, 1.0 ]
				}

			}
, 			{
				"box" : 				{
					"activebgcolor" : [ 0.498039, 0.52549, 0.576471, 0.0 ],
					"activebgoncolor" : [ 0.74902, 0.705882, 0.662745, 1.0 ],
					"bgcolor" : [ 0.498039, 0.52549, 0.576471, 1.0 ],
					"bgoncolor" : [ 0.815686, 0.847059, 0.886275, 0.0 ],
					"bordercolor" : [ 0.674992, 0.802453, 1.0, 1.0 ],
					"focusbordercolor" : [ 0.0, 0.019608, 0.078431, 0.0 ],
					"id" : "obj-336",
					"maxclass" : "live.button",
					"numinlets" : 1,
					"numoutlets" : 1,
					"outlettype" : [ "" ],
					"parameter_enable" : 1,
					"patching_rect" : [ 99.250015, 34.0, 56.100002, 52.0 ],
					"presentation" : 1,
					"presentation_rect" : [ 136.87027, 168.237778, 28.194733, 27.194733 ],
					"saved_attribute_attributes" : 					{
						"valueof" : 						{
							"parameter_longname" : "Off[1]",
							"parameter_shortname" : "Off",
							"parameter_type" : 2,
							"parameter_mmax" : 1.0,
							"parameter_enum" : [ "off", "on" ]
						}

					}
,
					"varname" : "Off[1]"
				}

			}
, 			{
				"box" : 				{
					"color" : [ 0.74902, 0.705882, 0.662745, 1.0 ],
					"fontname" : "Arial",
					"fontsize" : 16.0,
					"id" : "obj-338",
					"maxclass" : "newobj",
					"numinlets" : 2,
					"numoutlets" : 6,
					"outlettype" : [ "signal", "signal", "list", "int", "bang", "bang" ],
					"patching_rect" : [ 8.0, 128.0, 254.0, 24.0 ],
					"saved_object_attributes" : 					{
						"args" : "maxUDO-singleInput.csd",
						"autostart" : 0,
						"bypass" : 0,
						"input" : 1,
						"interval" : 10,
						"matchsr" : 1,
						"message" : 1,
						"output" : 1,
						"overdrive" : 0
					}
,
					"text" : "csound~ maxUDO-singleInput.csd"
				}

			}
, 			{
				"box" : 				{
					"activebgcolor" : [ 0.0, 0.0, 0.0, 0.0 ],
					"activebgoncolor" : [ 0.74902, 0.705882, 0.662745, 1.0 ],
					"bgcolor" : [ 0.498039, 0.52549, 0.576471, 1.0 ],
					"bgoncolor" : [ 0.815686, 0.847059, 0.886275, 0.0 ],
					"bordercolor" : [ 0.674992, 0.802453, 1.0, 1.0 ],
					"focusbordercolor" : [ 0.0, 0.019608, 0.078431, 0.0 ],
					"id" : "obj-339",
					"maxclass" : "live.button",
					"numinlets" : 1,
					"numoutlets" : 1,
					"outlettype" : [ "" ],
					"parameter_enable" : 1,
					"patching_rect" : [ 25.250015, 34.0, 56.100002, 52.0 ],
					"presentation" : 1,
					"presentation_rect" : [ 137.150452, 141.186279, 28.194733, 27.194733 ],
					"saved_attribute_attributes" : 					{
						"valueof" : 						{
							"parameter_longname" : "On[1]",
							"parameter_shortname" : "On",
							"parameter_type" : 2,
							"parameter_mmax" : 1.0,
							"parameter_enum" : [ "off", "on" ]
						}

					}
,
					"varname" : "On[1]"
				}

			}
 ],
		"lines" : [ 			{
				"patchline" : 				{
					"destination" : [ "obj-338", 0 ],
					"disabled" : 0,
					"hidden" : 0,
					"source" : [ "obj-10", 0 ]
				}

			}
, 			{
				"patchline" : 				{
					"destination" : [ "obj-8", 0 ],
					"disabled" : 0,
					"hidden" : 0,
					"source" : [ "obj-12", 0 ]
				}

			}
, 			{
				"patchline" : 				{
					"destination" : [ "obj-10", 0 ],
					"disabled" : 0,
					"hidden" : 0,
					"source" : [ "obj-14", 0 ]
				}

			}
, 			{
				"patchline" : 				{
					"destination" : [ "obj-2", 0 ],
					"disabled" : 0,
					"hidden" : 1,
					"source" : [ "obj-15", 0 ]
				}

			}
, 			{
				"patchline" : 				{
					"destination" : [ "obj-3", 0 ],
					"disabled" : 0,
					"hidden" : 0,
					"source" : [ "obj-16", 0 ]
				}

			}
, 			{
				"patchline" : 				{
					"destination" : [ "obj-5", 0 ],
					"disabled" : 0,
					"hidden" : 0,
					"source" : [ "obj-17", 0 ]
				}

			}
, 			{
				"patchline" : 				{
					"destination" : [ "obj-12", 0 ],
					"disabled" : 0,
					"hidden" : 0,
					"source" : [ "obj-19", 0 ]
				}

			}
, 			{
				"patchline" : 				{
					"destination" : [ "obj-16", 0 ],
					"disabled" : 0,
					"hidden" : 1,
					"source" : [ "obj-2", 0 ]
				}

			}
, 			{
				"patchline" : 				{
					"destination" : [ "obj-17", 0 ],
					"disabled" : 0,
					"hidden" : 0,
					"midpoints" : [ 323.590851, 344.0, 257.0, 344.0, 257.0, 448.0, 271.5, 448.0 ],
					"source" : [ "obj-3", 0 ]
				}

			}
, 			{
				"patchline" : 				{
					"destination" : [ "obj-9", 0 ],
					"disabled" : 0,
					"hidden" : 0,
					"source" : [ "obj-336", 0 ]
				}

			}
, 			{
				"patchline" : 				{
					"destination" : [ "obj-1", 0 ],
					"disabled" : 0,
					"hidden" : 0,
					"source" : [ "obj-338", 5 ]
				}

			}
, 			{
				"patchline" : 				{
					"destination" : [ "obj-11", 0 ],
					"disabled" : 0,
					"hidden" : 0,
					"source" : [ "obj-338", 4 ]
				}

			}
, 			{
				"patchline" : 				{
					"destination" : [ "obj-367", 0 ],
					"disabled" : 0,
					"hidden" : 0,
					"source" : [ "obj-338", 1 ]
				}

			}
, 			{
				"patchline" : 				{
					"destination" : [ "obj-368", 0 ],
					"disabled" : 0,
					"hidden" : 0,
					"source" : [ "obj-338", 0 ]
				}

			}
, 			{
				"patchline" : 				{
					"destination" : [ "obj-4", 0 ],
					"disabled" : 0,
					"hidden" : 0,
					"source" : [ "obj-339", 0 ]
				}

			}
, 			{
				"patchline" : 				{
					"destination" : [ "obj-363", 1 ],
					"disabled" : 0,
					"hidden" : 0,
					"midpoints" : [ 123.5, 390.0, 200.5, 390.0 ],
					"source" : [ "obj-367", 0 ]
				}

			}
, 			{
				"patchline" : 				{
					"destination" : [ "obj-363", 0 ],
					"disabled" : 0,
					"hidden" : 0,
					"source" : [ "obj-368", 0 ]
				}

			}
, 			{
				"patchline" : 				{
					"destination" : [ "obj-366", 0 ],
					"disabled" : 0,
					"hidden" : 1,
					"source" : [ "obj-368", 0 ]
				}

			}
, 			{
				"patchline" : 				{
					"destination" : [ "obj-367", 0 ],
					"disabled" : 0,
					"hidden" : 1,
					"source" : [ "obj-368", 1 ]
				}

			}
, 			{
				"patchline" : 				{
					"destination" : [ "obj-338", 0 ],
					"disabled" : 0,
					"hidden" : 0,
					"midpoints" : [ 17.5, 31.0, 17.5, 31.0 ],
					"source" : [ "obj-37", 0 ]
				}

			}
, 			{
				"patchline" : 				{
					"destination" : [ "obj-338", 0 ],
					"disabled" : 0,
					"hidden" : 0,
					"source" : [ "obj-4", 0 ]
				}

			}
, 			{
				"patchline" : 				{
					"destination" : [ "obj-7", 1 ],
					"disabled" : 0,
					"hidden" : 0,
					"source" : [ "obj-6", 1 ]
				}

			}
, 			{
				"patchline" : 				{
					"destination" : [ "obj-7", 0 ],
					"disabled" : 0,
					"hidden" : 0,
					"source" : [ "obj-6", 0 ]
				}

			}
, 			{
				"patchline" : 				{
					"destination" : [ "obj-17", 0 ],
					"disabled" : 0,
					"hidden" : 0,
					"midpoints" : [ 271.5, 453.289429, 271.5, 453.289429 ],
					"source" : [ "obj-7", 0 ]
				}

			}
, 			{
				"patchline" : 				{
					"destination" : [ "obj-6", 0 ],
					"disabled" : 0,
					"hidden" : 0,
					"source" : [ "obj-8", 0 ]
				}

			}
, 			{
				"patchline" : 				{
					"destination" : [ "obj-338", 0 ],
					"disabled" : 0,
					"hidden" : 0,
					"source" : [ "obj-9", 0 ]
				}

			}
 ],
		"parameters" : 		{
			"obj-336" : [ "Off[1]", "Off", 0 ],
			"obj-339" : [ "On[1]", "On", 0 ],
			"obj-14" : [ "On[2]", "On", 0 ]
		}
,
		"dependency_cache" : [ 			{
				"name" : "csound~.mxo",
				"type" : "iLaX"
			}
 ]
	}

}
